<svg xmlns="http://www.w3.org/2000/svg" width="20.687" height="19.572" viewBox="0 0 20.687 19.572">
  <path id="iconfinder_00-ELASTOFONT-STORE-READY_cart_2703080" d="M1.646,2.59H4.091a.559.559,0,0,1,.065.014.572.572,0,0,1,.135.03.6.6,0,0,1,.1.049.627.627,0,0,1,.107.079.661.661,0,0,1,.083.093.687.687,0,0,1,.069.111A.714.714,0,0,1,4.7,3.1a.7.7,0,0,1,.026.072L5.1,5.375l15.82,1.008a1.008,1.008,0,0,1,.182.012.69.69,0,0,1,.586.755.78.78,0,0,1-.011.084l-1.1,6.556a2.449,2.449,0,0,1-2.2,2.043H6.852L7.1,17.3h9.7a2.438,2.438,0,0,1,0,4.858,2.337,2.337,0,0,1-2.227-2.429,2.584,2.584,0,0,1,.212-1.019H8.826a2.584,2.584,0,0,1,.212,1.019,2.337,2.337,0,0,1-2.227,2.429,2.337,2.337,0,0,1-2.227-2.429,2.451,2.451,0,0,1,1.243-2.167L3.552,4H1.646A.678.678,0,0,1,1,3.295.678.678,0,0,1,1.646,2.59Zm4.506,9.076,2.739.047L8.743,9.981,5.854,9.887Zm13.686-1.322-2.737-.09-.179,1.6,2.656.045Zm-3.6-.118-3.009-.1v1.659l2.828.048ZM13.227,9.187l3.114.1.2-1.772-3.313-.211V9.187ZM12.365,7.25,9.357,7.058,9.53,9.066l2.835.093V7.25Zm.862,5.477v1.7h2.538l.185-1.649Zm-.862-.015L9.84,12.669l.151,1.754h2.374V12.712Zm0-.94V10.1l-2.754-.09.148,1.718ZM5.7,8.941l2.966.1L8.486,7l-3.15-.2ZM17.4,7.571l-.2,1.746L20,9.408c.118-.7.211-1.238.291-1.653Zm1.91,5.908.108-.646-2.6-.045-.183,1.635h1.743C18.929,14.423,19.238,13.769,19.312,13.48Zm-10.186.944-.152-1.769-2.662-.046.3,1.815h2.51Zm6.736,5.309a.937.937,0,1,0,.934-1.019A.98.98,0,0,0,15.861,19.732ZM6.812,20.751a1.023,1.023,0,0,0,0-2.037,1.023,1.023,0,0,0,0,2.037Z" transform="translate(-1 -2.59)" fill="#0d0c45"/>
</svg>
