<?xml version="1.0" encoding="UTF-8"?>
<svg xmlns="http://www.w3.org/2000/svg" xmlns:xlink="http://www.w3.org/1999/xlink" width="18pt" height="14pt" viewBox="0 0 18 14" version="1.1">
<g id="surface1">
<path style=" stroke:none;fill-rule:nonzero;fill:rgb(0%,0%,0%);fill-opacity:1;" d="M 8.738281 0.0625 C 8.066406 0.320312 6.679688 0.929688 5.011719 1.699219 C 4.324219 2.015625 2.996094 2.648438 2.675781 2.808594 C 2.5625 2.867188 2.320312 2.988281 2.136719 3.078125 C 1.175781 3.558594 0.449219 3.964844 0.183594 4.171875 C 0.0703125 4.257812 0 4.402344 0 4.542969 L 0 4.644531 L 0.0703125 4.714844 C 0.128906 4.769531 0.164062 4.789062 0.253906 4.816406 C 0.351562 4.847656 0.386719 4.847656 0.566406 4.839844 C 0.796875 4.835938 0.921875 4.804688 1.125 4.722656 C 1.246094 4.671875 1.589844 4.5 1.75 4.410156 L 1.824219 4.367188 L 1.835938 6.457031 C 1.839844 7.605469 1.84375 9.222656 1.84375 10.050781 C 1.84375 11.820312 1.855469 12.136719 1.933594 12.574219 C 2.007812 12.972656 2.132812 13.273438 2.332031 13.503906 C 2.570312 13.785156 2.96875 13.925781 3.691406 13.984375 C 3.832031 13.996094 5.4375 13.996094 9.121094 13.996094 C 14.070312 13.988281 14.355469 13.988281 14.503906 13.964844 C 14.722656 13.925781 14.902344 13.886719 15.007812 13.851562 C 15.601562 13.652344 15.878906 13.1875 15.980469 12.226562 C 16.023438 11.84375 16.035156 11.308594 16.078125 8.042969 C 16.105469 6.253906 16.132812 4.699219 16.136719 4.582031 L 16.148438 4.367188 L 16.289062 4.445312 C 16.519531 4.574219 16.777344 4.695312 16.894531 4.734375 C 17.027344 4.777344 17.28125 4.816406 17.4375 4.816406 C 17.6875 4.816406 17.855469 4.765625 17.949219 4.667969 C 17.996094 4.617188 18 4.601562 18 4.527344 C 18 4.308594 17.851562 4.171875 17.265625 3.835938 C 15.964844 3.097656 11.988281 1.210938 9.765625 0.28125 C 9 -0.0390625 9.007812 -0.0390625 8.738281 0.0625 Z M 9.304688 1.15625 C 9.695312 1.308594 10.148438 1.503906 11.78125 2.226562 C 12.5625 2.570312 13.53125 2.992188 13.792969 3.101562 L 13.882812 3.136719 L 4.359375 3.136719 L 4.507812 3.058594 C 4.726562 2.941406 5.78125 2.425781 6.226562 2.21875 C 7.367188 1.6875 8.339844 1.261719 8.773438 1.105469 C 8.976562 1.035156 9.007812 1.039062 9.304688 1.15625 Z M 14.964844 4.03125 C 14.992188 4.046875 15.023438 4.070312 15.035156 4.089844 C 15.054688 4.117188 15.054688 4.609375 15.039062 7.84375 C 15.019531 11.488281 15.015625 11.570312 14.988281 11.753906 C 14.902344 12.253906 14.792969 12.523438 14.589844 12.71875 C 14.429688 12.875 14.257812 12.945312 13.902344 13.003906 C 13.582031 13.058594 13.402344 13.0625 12.222656 13.074219 L 11.054688 13.082031 L 11.050781 11.078125 L 11.046875 9.070312 L 11.015625 8.976562 C 10.925781 8.722656 10.707031 8.511719 10.445312 8.425781 L 10.3125 8.386719 L 9 8.386719 C 7.6875 8.386719 7.6875 8.386719 7.578125 8.417969 C 7.429688 8.460938 7.320312 8.523438 7.199219 8.640625 C 7.085938 8.753906 6.996094 8.902344 6.96875 9.042969 C 6.949219 9.128906 6.945312 9.460938 6.945312 11.113281 L 6.945312 13.082031 L 5.785156 13.074219 C 4.449219 13.0625 4.148438 13.046875 3.730469 12.960938 C 3.453125 12.90625 3.289062 12.835938 3.183594 12.722656 C 3.0625 12.59375 2.992188 12.429688 2.945312 12.167969 C 2.921875 12.03125 2.917969 11.757812 2.914062 8.074219 C 2.910156 4.460938 2.910156 4.125 2.933594 4.089844 C 2.945312 4.070312 2.984375 4.042969 3.019531 4.027344 C 3.082031 4 3.21875 4 9 4.003906 C 14.628906 4.007812 14.921875 4.007812 14.964844 4.03125 Z M 10.214844 9.144531 C 10.242188 9.15625 10.265625 9.183594 10.273438 9.203125 C 10.285156 9.226562 10.289062 9.972656 10.289062 11.160156 L 10.289062 13.078125 L 7.710938 13.078125 L 7.710938 11.140625 C 7.710938 9.058594 7.707031 9.167969 7.785156 9.136719 C 7.808594 9.128906 8.28125 9.125 8.996094 9.125 C 10.027344 9.121094 10.175781 9.125 10.214844 9.144531 Z M 10.214844 9.144531 "/>
</g>
</svg>
