<svg xmlns="http://www.w3.org/2000/svg" xmlns:xlink="http://www.w3.org/1999/xlink" width="35.105" height="45.568" viewBox="0 0 35.105 45.568">
  <defs>
    <filter id="Path_78" x="0" y="18.131" width="35.105" height="27.437" filterUnits="userSpaceOnUse">
      <feOffset dy="3" input="SourceAlpha"/>
      <feGaussianBlur stdDeviation="3" result="blur"/>
      <feFlood flood-opacity="0.11"/>
      <feComposite operator="in" in2="blur"/>
      <feComposite in="SourceGraphic"/>
    </filter>
    <filter id="Path_44" x="1.77" y="0" width="31.124" height="38.49" filterUnits="userSpaceOnUse">
      <feOffset dy="3" input="SourceAlpha"/>
      <feGaussianBlur stdDeviation="3" result="blur-2"/>
      <feFlood flood-opacity="0.161"/>
      <feComposite operator="in" in2="blur-2"/>
      <feComposite in="SourceGraphic"/>
    </filter>
    <filter id="Path_45" x="4.23" y="2.561" width="26.203" height="26.538" filterUnits="userSpaceOnUse">
      <feOffset dy="3" input="SourceAlpha"/>
      <feGaussianBlur stdDeviation="3" result="blur-3"/>
      <feFlood flood-opacity="0.161"/>
      <feComposite operator="in" in2="blur-3"/>
      <feComposite in="SourceGraphic"/>
    </filter>
  </defs>
  <g id="Group_1251" data-name="Group 1251" transform="translate(9 6)">
    <g transform="matrix(1, 0, 0, 1, -9, -6)" filter="url(#Path_78)">
      <g id="Path_78-2" data-name="Path 78" transform="translate(9 24.13)" fill="#695eff">
        <path d="M 8.552692413330078 7.437456607818604 C 6.628662586212158 7.437456607818604 4.776522636413574 7.024406433105469 3.471182346343994 6.304216861724854 C 2.577472448348999 5.811136722564697 2.000002384185791 5.188796520233154 2.000002384185791 4.718726634979248 C 2.000002384185791 4.248656749725342 2.577472448348999 3.626316547393799 3.471182346343994 3.133236646652222 C 4.776522636413574 2.413046598434448 6.628662586212158 1.999996662139893 8.552692413330078 1.999996662139893 C 10.47672271728516 1.999996662139893 12.32886219024658 2.413046598434448 13.634202003479 3.133236646652222 C 14.52791213989258 3.626316547393799 15.10538196563721 4.248656749725342 15.10538196563721 4.718726634979248 C 15.10538196563721 5.188796520233154 14.52791213989258 5.811136722564697 13.634202003479 6.304216861724854 C 12.32886219024658 7.024406433105469 10.47672271728516 7.437456607818604 8.552692413330078 7.437456607818604 Z" stroke="none"/>
        <path d="M 8.552692413330078 3.999996662139893 C 6.823776245117188 3.999996662139893 5.551315307617188 4.359002113342285 4.761740684509277 4.718726634979248 C 5.551315307617188 5.078451156616211 6.823776245117188 5.437456607818604 8.552692413330078 5.437456607818604 C 10.28160858154297 5.437456607818604 11.55406951904297 5.078451156616211 12.34364414215088 4.718726634979248 C 11.55406951904297 4.359002113342285 10.28160858154297 3.999996662139893 8.552692413330078 3.999996662139893 M 8.552692413330078 -3.814697265625e-06 C 13.27621269226074 -3.814697265625e-06 17.10538291931152 2.112646579742432 17.10538291931152 4.718726634979248 C 17.10538291931152 7.324806690216064 13.27621269226074 9.437457084655762 8.552692413330078 9.437457084655762 C 3.829172134399414 9.437457084655762 1.9073486328125e-06 7.324806690216064 1.9073486328125e-06 4.718726634979248 C 1.9073486328125e-06 2.112646579742432 3.829172134399414 -3.814697265625e-06 8.552692413330078 -3.814697265625e-06 Z" stroke="none" fill="#fff"/>
      </g>
    </g>
    <g id="iconfinder_map-marker_299087" transform="translate(1.77 0)">
      <g transform="matrix(1, 0, 0, 1, -10.77, -6)" filter="url(#Path_44)">
        <path id="Path_44-2" data-name="Path 44" d="M10.562,0A6.7,6.7,0,0,0,4,6.83a7,7,0,0,0,.846,3.335c.089.164.181.325.282.481l5.434,9.845L16,10.645c.084-.129.156-.266.231-.4l.052-.08a7.006,7.006,0,0,0,.846-3.335A6.7,6.7,0,0,0,10.562,0Zm0,3.415A3.35,3.35,0,0,1,13.843,6.83a3.35,3.35,0,0,1-3.281,3.415A3.35,3.35,0,0,1,7.281,6.83,3.35,3.35,0,0,1,10.562,3.415Z" transform="translate(6.77 6)" fill="#695eff"/>
      </g>
      <g transform="matrix(1, 0, 0, 1, -10.77, -6)" filter="url(#Path_45)">
        <path id="Path_45-2" data-name="Path 45" d="M11.1,3A4.188,4.188,0,0,0,7,7.269a4.188,4.188,0,0,0,4.1,4.269,4.188,4.188,0,0,0,4.1-4.269A4.188,4.188,0,0,0,11.1,3Zm0,1.708a2.512,2.512,0,0,1,2.461,2.561,2.463,2.463,0,1,1-4.922,0A2.512,2.512,0,0,1,11.1,4.708Z" transform="translate(6.23 5.56)" fill="#695eff"/>
      </g>
    </g>
  </g>
</svg>
