<svg xmlns="http://www.w3.org/2000/svg" xmlns:xlink="http://www.w3.org/1999/xlink" width="24.648" height="28.378" viewBox="0 0 24.648 28.378"><defs><style>.a{fill:#695eff;}.b{filter:url(#c);}.c{filter:url(#a);}</style><filter id="a" x="0" y="0" width="24.648" height="28.378" filterUnits="userSpaceOnUse"><feOffset dy="3" input="SourceAlpha"/><feGaussianBlur stdDeviation="3" result="b"/><feFlood flood-opacity="0.161"/><feComposite operator="in" in2="b"/><feComposite in="SourceGraphic"/></filter><filter id="c" x="1.246" y="1.297" width="22.155" height="22.324" filterUnits="userSpaceOnUse"><feOffset dy="3" input="SourceAlpha"/><feGaussianBlur stdDeviation="3" result="d"/><feFlood flood-opacity="0.161"/><feComposite operator="in" in2="d"/><feComposite in="SourceGraphic"/></filter></defs><g transform="translate(9 6)"><g class="c" transform="matrix(1, 0, 0, 1, -9, -6)"><path class="a" d="M7.324,0A3.394,3.394,0,0,0,4,3.459a3.546,3.546,0,0,0,.428,1.689c.045.083.092.165.143.243l2.752,4.986,2.752-4.986c.042-.065.079-.134.117-.2l.026-.041a3.549,3.549,0,0,0,.428-1.689A3.394,3.394,0,0,0,7.324,0Zm0,1.73a1.7,1.7,0,0,1,1.662,1.73,1.663,1.663,0,1,1-3.324,0A1.7,1.7,0,0,1,7.324,1.73Z" transform="translate(5 6)"/></g><g class="b" transform="matrix(1, 0, 0, 1, -9, -6)"><path class="a" d="M9.077,3A2.121,2.121,0,0,0,7,5.162a2.079,2.079,0,1,0,4.155,0A2.121,2.121,0,0,0,9.077,3Zm0,.865a1.3,1.3,0,1,1-1.246,1.3A1.273,1.273,0,0,1,9.077,3.865Z" transform="translate(3.25 4.3)"/></g></g></svg>