<svg xmlns="http://www.w3.org/2000/svg" xmlns:xlink="http://www.w3.org/1999/xlink" width="31.124" height="38.49" viewBox="0 0 31.124 38.49"><defs><style>.a{fill:#695eff;}.b{filter:url(#c);}.c{filter:url(#a);}</style><filter id="a" x="0" y="0" width="31.124" height="38.49" filterUnits="userSpaceOnUse"><feOffset dy="3" input="SourceAlpha"/><feGaussianBlur stdDeviation="3" result="b"/><feFlood flood-opacity="0.161"/><feComposite operator="in" in2="b"/><feComposite in="SourceGraphic"/></filter><filter id="c" x="2.461" y="2.561" width="26.203" height="26.538" filterUnits="userSpaceOnUse"><feOffset dy="3" input="SourceAlpha"/><feGaussianBlur stdDeviation="3" result="d"/><feFlood flood-opacity="0.161"/><feComposite operator="in" in2="d"/><feComposite in="SourceGraphic"/></filter></defs><g transform="translate(9 6)"><g class="c" transform="matrix(1, 0, 0, 1, -9, -6)"><path class="a" d="M10.562,0A6.7,6.7,0,0,0,4,6.83a7,7,0,0,0,.846,3.335c.089.164.181.325.282.481l5.434,9.845L16,10.645c.084-.129.156-.266.231-.4l.052-.08a7.006,7.006,0,0,0,.846-3.335A6.7,6.7,0,0,0,10.562,0Zm0,3.415A3.35,3.35,0,0,1,13.843,6.83a3.35,3.35,0,0,1-3.281,3.415A3.35,3.35,0,0,1,7.281,6.83,3.35,3.35,0,0,1,10.562,3.415Z" transform="translate(5 6)"/></g><g class="b" transform="matrix(1, 0, 0, 1, -9, -6)"><path class="a" d="M11.1,3A4.188,4.188,0,0,0,7,7.269a4.188,4.188,0,0,0,4.1,4.269,4.188,4.188,0,0,0,4.1-4.269A4.188,4.188,0,0,0,11.1,3Zm0,1.708a2.512,2.512,0,0,1,2.461,2.561,2.463,2.463,0,1,1-4.922,0A2.512,2.512,0,0,1,11.1,4.708Z" transform="translate(4.46 5.56)"/></g></g></svg>