<svg height="18" viewBox="0 0 18 18" width="18" xmlns="http://www.w3.org/2000/svg"><path d="m9 0a9 9 0 1 1 -9 9 9 9 0 0 1 9-9z" fill="#695EFC" opacity=".995"/><g fill="#fff" transform="matrix(.70710678 -.70710678 .70710678 .70710678 990.171 -977.414)"><path d="m-1389.99963379 5.50029993h-4.00048828c-.27563477 0-.49987793-.22424984-.49987793-.49989986 0-.27614022.22424316-.50080014.49987793-.50080014h2.99963379.5v-.5-2.99969995c0-.27565002.22473144-.49990001.50085449-.49990001.27563477 0 .49987793.22424999.49987793.49990001v4.00050009c0 .27565002-.22424316.49989986-.49987793.49989986z"/><path d="m-1389.99963379 5.00029993-.00012207.00010014-.00073242-4.00050009v2.99969995 1h-1l-2.99963379.0007zm0 1h-4.00048828c-.55175781 0-.99987793-.44819975-.99987793-.99989986 0-.55259991.44812012-1.00080014.99987793-1.00080014h2.99963379v-2.99969995c0-.55260002.44824219-.99990001 1.00085449-.99990001.55175781 0 .99987793.44729999.99987793.99990001v4.00050009c0 .55170011-.44812012.99989986-.99987793.99989986z" fill="#f7f7f7"/></g></svg>