<svg xmlns="http://www.w3.org/2000/svg" width="50.6" height="16.2" viewBox="0 0 50.6 16.2"><defs><style>.a{fill:#fff;}</style></defs><g transform="translate(-6.7 -23.8)"><path class="a" d="M27.1,24.1,24.5,39.9h4.1l2.6-15.8Z"/><path class="a" d="M50.8,24.1h0a1.962,1.962,0,0,0-2.1,1.3L42.6,40h4.3s.7-2,.9-2.4H53c.1.6.5,2.4.5,2.4h3.8L54,24.1ZM48.9,34.3c.3-.9,1.6-4.4,1.6-4.4l.5-1.5h0l.3,1.4s.8,3.8,1,4.6H48.9Z"/><path class="a" d="M39.4,30.5c-1.4-.7-2.3-1.2-2.3-2,0-.7.7-1.4,2.3-1.4a8.515,8.515,0,0,1,3.1.6l.4.2.6-3.4a10.519,10.519,0,0,0-3.7-.7h0c-4,0-6.9,2.2-6.9,5.2,0,2.3,2,3.6,3.6,4.3,1.6.8,2.1,1.3,2.1,2,0,1.1-1.3,1.5-2.5,1.5a8.53,8.53,0,0,1-3.9-.8l-.5-.3-.6,3.5a13.131,13.131,0,0,0,4.6.8c4.3,0,7.1-2.1,7.1-5.4C42.9,33,41.8,31.6,39.4,30.5Z"/><path class="a" d="M21.1,24.1h0l-4,10.8-.4-2.2h0l-1.4-7.3c-.2-1-1-1.3-1.9-1.3H6.9c-.1,0-.1.1-.2.1,0,.1,0,.2.1.2a16.932,16.932,0,0,1,2.7,1,3.412,3.412,0,0,1,1.8,2.1l3.3,12.4h4.3l6.4-15.8H21.1Z"/></g></svg>