<svg xmlns="http://www.w3.org/2000/svg" width="16.069" height="15.203" viewBox="0 0 16.069 15.203">
  <path id="iconfinder_00-ELASTOFONT-STORE-READY_cart_2703080" d="M1.5,2.59H3.4a.434.434,0,0,1,.051.011.444.444,0,0,1,.1.023.464.464,0,0,1,.08.038.487.487,0,0,1,.083.061.514.514,0,0,1,.064.072.533.533,0,0,1,.053.087.555.555,0,0,1,.037.1.546.546,0,0,1,.02.056l.288,1.714,12.289.783a.783.783,0,0,1,.141.009.536.536,0,0,1,.455.586.607.607,0,0,1-.008.066L16.2,11.29A1.9,1.9,0,0,1,14.5,12.877H5.545l.192,1.142h7.532a1.894,1.894,0,0,1,0,3.773,1.816,1.816,0,0,1-1.73-1.887,2.007,2.007,0,0,1,.165-.791H7.079a2.007,2.007,0,0,1,.165.791,1.816,1.816,0,0,1-1.73,1.887,1.816,1.816,0,0,1-1.73-1.887,1.9,1.9,0,0,1,.966-1.684L2.982,3.685H1.5A.527.527,0,0,1,1,3.138.527.527,0,0,1,1.5,2.59ZM5,9.64l2.128.036L7.014,8.331,4.77,8.258ZM15.633,8.613l-2.126-.07-.139,1.239,2.063.035Zm-2.8-.091L10.5,8.445V9.734l2.2.038ZM10.5,7.714l2.419.079.155-1.377L10.5,6.253V7.714Zm-.67-1.5L7.491,6.061l.134,1.56,2.2.072V6.21Zm.67,4.254v1.318h1.971l.144-1.281Zm-.67-.011-1.961-.034.117,1.363H9.828V10.453Zm0-.73v-1.3l-2.139-.07L7.8,9.688Zm-5.181-2.2,2.3.075L6.815,6.018,4.368,5.862ZM13.741,6.46l-.152,1.356,2.167.071c.091-.541.164-.961.226-1.284Zm1.484,4.589.084-.5-2.023-.035-.143,1.27H14.5C14.927,11.782,15.167,11.273,15.224,11.049Zm-7.913.733-.118-1.374-2.068-.035.236,1.41h1.95Zm5.232,4.124a.728.728,0,1,0,.725-.791A.761.761,0,0,0,12.544,15.906Zm-7.03.792a.794.794,0,0,0,0-1.583.794.794,0,0,0,0,1.583Z" transform="translate(-1 -2.59)" fill="#fff"/>
</svg>
